<?xml version="1.0" standalone="no"?>
<!DOCTYPE svg PUBLIC "-//W3C//DTD SVG 20010904//EN"
 "http://www.w3.org/TR/2001/REC-SVG-20010904/DTD/svg10.dtd">
<svg version="1.0" xmlns="http://www.w3.org/2000/svg"
 width="584.000000pt" height="726.000000pt" viewBox="0 0 584.000000 726.000000"
 preserveAspectRatio="xMidYMid meet">
<metadata>
Created by potrace 1.15, written by Peter Selinger 2001-2017
</metadata>
<g transform="translate(0.000000,726.000000) scale(0.100000,-0.100000)"
fill="#000000" stroke="none">
<path d="M2810 7239 c-178 -35 -339 -205 -369 -389 -6 -37 -11 -218 -11 -413
l0 -348 114 -54 114 -53 84 34 c104 41 205 63 328 71 84 5 242 -7 308 -24 l22
-5 0 363 c0 206 -5 392 -11 429 -15 95 -62 184 -133 256 -119 118 -278 166
-446 133z"/>
<path d="M4473 5951 c-68 -74 -130 -113 -218 -136 -126 -32 -245 -16 -578 79
-124 36 -261 72 -304 81 -109 23 -292 30 -393 16 -88 -13 -210 -47 -210 -59 0
-9 972 -483 978 -477 9 9 -40 74 -92 123 -29 28 -88 74 -131 101 -91 60 -83
65 20 15 95 -46 189 -132 235 -214 l35 -62 253 -124 c139 -68 257 -124 262
-124 17 0 110 99 148 158 80 124 118 309 101 495 -9 98 -28 197 -38 196 -3 0
-34 -31 -68 -68z"/>
<path d="M125 1161 c-48 -29 -67 -57 -72 -104 -11 -93 25 -140 134 -178 71
-24 99 -42 106 -68 8 -30 -28 -71 -62 -71 -38 0 -81 35 -81 66 0 23 -3 24 -56
24 l-57 0 6 -46 c9 -83 79 -134 184 -134 111 0 173 57 173 160 0 86 -25 116
-129 157 -100 39 -113 49 -109 82 6 54 101 54 120 1 9 -28 14 -30 59 -30 49 0
49 0 49 33 0 44 -31 90 -73 110 -49 24 -153 23 -192 -2z"/>
<path d="M920 921 l0 -261 55 0 55 0 0 94 0 93 72 7 c84 8 129 31 152 80 22
48 21 133 -4 173 -31 52 -68 65 -207 71 l-123 5 0 -262z m232 128 c16 -21 17
-30 8 -54 -15 -39 -26 -45 -82 -45 l-48 0 0 66 0 65 51 -3 c42 -2 56 -8 71
-29z"/>
<path d="M1884 1166 c-42 -19 -90 -80 -103 -132 -14 -54 -14 -187 -1 -235 33
-118 149 -176 282 -139 44 13 101 72 119 126 7 22 13 81 13 136 0 87 -3 102
-30 154 -39 76 -88 104 -183 104 -36 -1 -80 -7 -97 -14z m153 -91 c36 -26 56
-95 51 -177 -6 -86 -22 -124 -59 -144 -67 -34 -129 2 -149 87 -23 93 4 214 53
237 32 16 79 14 104 -3z"/>
<path d="M2717 1173 c-4 -3 -7 -120 -7 -260 l0 -253 50 0 49 0 3 146 3 146 80
-144 80 -143 48 -3 47 -3 0 260 0 261 -45 0 -45 0 0 -157 0 -158 -87 158 -88
157 -41 0 c-22 0 -44 -3 -47 -7z"/>
<path d="M3672 1162 c-48 -26 -72 -68 -72 -127 0 -87 33 -122 149 -160 29 -10
62 -26 72 -36 41 -41 9 -99 -53 -99 -35 0 -68 32 -68 65 0 24 -3 25 -56 25
l-57 0 5 -44 c11 -94 84 -143 202 -134 75 6 121 33 142 84 29 68 9 165 -39
197 -12 8 -51 25 -87 37 -80 29 -102 46 -98 79 6 54 98 54 116 1 10 -28 14
-30 61 -30 49 0 51 1 51 28 0 41 -32 93 -71 114 -45 24 -151 24 -197 0z"/>
<path d="M4560 1158 c-37 -19 -51 -34 -75 -83 -27 -54 -30 -69 -30 -155 1
-111 14 -158 62 -211 79 -88 256 -77 320 20 35 52 46 107 41 211 -6 128 -43
200 -121 229 -50 19 -148 13 -197 -11z m169 -93 c70 -60 64 -257 -11 -309 -49
-35 -117 -9 -142 54 -18 46 -21 147 -6 202 21 75 101 101 159 53z"/>
<path d="M5400 921 l0 -261 55 0 55 0 0 105 0 105 43 0 42 0 40 -103 41 -102
58 -3 c47 -2 57 0 53 11 -3 7 -24 59 -47 115 l-43 102 28 22 c30 24 55 74 55
112 0 47 -31 105 -67 127 -30 19 -54 22 -174 27 l-139 5 0 -262z m250 144 c20
-24 15 -67 -10 -87 -15 -12 -39 -18 -76 -18 l-54 0 0 60 0 60 64 0 c44 0 67
-5 76 -15z"/>
<path d="M131 400 c-73 -18 -121 -83 -129 -174 -5 -68 12 -128 49 -171 89
-101 268 -57 294 72 6 31 5 33 -23 33 -26 0 -32 -5 -42 -36 -12 -37 -59 -74
-93 -74 -41 0 -89 33 -108 74 -49 107 5 226 103 226 50 0 74 -13 93 -50 12
-23 22 -30 45 -30 17 0 30 3 30 7 0 23 -44 91 -69 106 -36 21 -104 29 -150 17z"/>
<path d="M1970 205 l0 -195 30 0 30 0 0 100 c0 87 3 103 20 120 24 24 63 26
84 4 13 -12 16 -38 16 -120 l0 -104 31 0 31 0 -4 121 c-3 119 -3 121 -32 146
-23 20 -37 24 -70 21 -23 -3 -49 -8 -58 -12 -16 -7 -18 -2 -18 53 l0 61 -30 0
-30 0 0 -195z"/>
<path d="M3170 206 l0 -196 113 0 c92 0 117 3 143 19 59 36 70 129 20 169 -23
18 -23 18 -5 41 27 34 25 93 -5 128 -24 27 -27 28 -145 32 l-121 3 0 -196z
m215 124 c22 -18 19 -67 -4 -80 -11 -5 -49 -10 -85 -10 l-66 0 0 56 0 57 70
-5 c38 -3 77 -11 85 -18z m15 -170 c26 -26 25 -46 -5 -75 -21 -22 -33 -25 -95
-25 l-70 0 0 60 0 60 75 0 c62 0 79 -4 95 -20z"/>
<path d="M4620 339 c0 -55 -2 -60 -17 -53 -32 14 -98 15 -123 2 -63 -33 -89
-133 -56 -213 26 -61 106 -91 165 -62 17 9 31 11 31 6 0 -5 14 -9 30 -9 l30 0
0 195 0 195 -30 0 -30 0 0 -61z m-25 -114 c20 -19 25 -34 25 -72 0 -56 -18
-88 -55 -97 -54 -14 -94 28 -95 97 0 56 32 97 75 97 14 0 37 -11 50 -25z"/>
<path d="M1820 335 c0 -41 -2 -45 -25 -45 -20 0 -25 -5 -25 -25 0 -20 5 -25
25 -25 25 0 25 0 25 -96 0 -120 7 -134 65 -134 41 0 45 2 45 25 0 20 -5 25
-25 25 -25 0 -25 1 -25 90 0 89 0 90 25 90 20 0 25 5 25 25 0 20 -5 25 -25 25
-23 0 -25 4 -25 45 0 43 -1 45 -30 45 -29 0 -30 -2 -30 -45z"/>
<path d="M437 285 c-25 -14 -47 -50 -47 -76 0 -5 13 -9 29 -9 20 0 30 6 34 20
6 22 46 35 82 26 18 -5 25 -13 25 -30 0 -24 -16 -36 -48 -36 -34 0 -94 -22
-113 -41 -21 -21 -25 -69 -9 -99 20 -38 119 -49 158 -17 9 7 18 5 32 -8 28
-25 70 -13 70 20 0 15 -5 24 -12 22 -10 -1 -14 26 -18 100 -4 79 -9 106 -22
120 -24 24 -124 29 -161 8z"/>
<path d="M780 293 c-8 -3 -23 -12 -32 -21 -16 -14 -18 -13 -18 1 0 11 -8 17
-25 17 l-25 0 0 -140 0 -140 24 0 c23 0 24 3 28 84 5 96 23 133 68 143 25 4
30 10 30 34 0 29 -14 35 -50 22z"/>
<path d="M920 293 c-31 -11 -71 -58 -80 -94 -33 -120 60 -223 169 -190 43 12
81 52 81 82 0 29 -38 23 -70 -11 -15 -16 -38 -30 -50 -30 -22 0 -80 50 -80 69
0 7 37 11 106 11 l107 0 -7 41 c-9 58 -31 96 -66 114 -29 15 -81 19 -110 8z"/>
<path d="M2492 284 c-12 -8 -22 -10 -22 -5 0 6 -13 11 -30 11 l-30 0 0 -140 0
-140 30 0 30 0 0 95 c0 89 2 98 25 121 32 32 74 29 92 -6 7 -15 13 -63 13
-117 0 -92 0 -93 25 -93 l25 0 0 110 c0 152 -16 179 -105 180 -17 0 -41 -7
-53 -16z"/>
<path d="M2775 290 c-33 -13 -66 -56 -75 -96 -11 -49 4 -122 32 -151 42 -45
128 -53 184 -17 75 50 70 206 -8 254 -34 21 -96 26 -133 10z m110 -66 c45 -49
25 -150 -34 -169 -81 -25 -135 119 -64 175 35 27 69 25 98 -6z"/>
<path d="M3582 285 c-44 -19 -76 -90 -69 -153 16 -143 195 -178 259 -51 23 44
22 93 -2 147 -30 66 -111 91 -188 57z m120 -65 c28 -28 30 -36 25 -78 -4 -34
-12 -53 -32 -69 -35 -31 -61 -29 -96 6 -39 39 -40 96 -3 140 33 40 66 40 106
1z"/>
<path d="M4208 286 c-16 -8 -28 -11 -28 -5 0 5 -11 9 -25 9 l-25 0 0 -140 0
-140 24 0 c24 0 24 2 28 101 3 92 5 103 27 120 28 23 64 25 85 3 13 -12 16
-38 16 -120 l0 -104 25 0 25 0 0 120 c0 115 -1 122 -25 145 -28 29 -84 33
-127 11z"/>
<path d="M4783 284 c-19 -10 -36 -28 -42 -46 -14 -40 -15 -38 18 -38 21 0 32
6 36 20 12 37 95 39 109 3 9 -23 -5 -34 -61 -44 -90 -17 -123 -43 -123 -98 0
-57 85 -95 151 -68 29 11 37 11 60 -2 14 -8 33 -12 42 -8 20 7 24 58 5 54 -10
-1 -14 25 -16 100 -3 96 -4 103 -29 123 -32 25 -104 27 -150 4z"/>
<path d="M5110 283 c-14 -9 -28 -22 -32 -27 -4 -6 -8 -1 -8 12 0 17 -6 22 -25
22 l-25 0 0 -140 0 -140 30 0 30 0 0 90 c0 83 2 93 25 115 13 14 36 25 50 25
21 0 25 5 25 30 0 25 -4 30 -23 30 -12 0 -34 -8 -47 -17z"/>
<path d="M5385 290 c-87 -35 -108 -192 -34 -254 57 -48 147 -42 189 11 47 59
2 89 -50 33 -15 -16 -38 -30 -50 -30 -22 0 -80 50 -80 69 0 7 37 11 106 11
l107 0 -7 41 c-9 58 -31 96 -66 114 -31 16 -83 19 -115 5z"/>
<path d="M5644 291 c-28 -12 -54 -50 -54 -78 0 -34 32 -60 97 -79 32 -9 64
-21 71 -26 20 -17 14 -38 -15 -49 -38 -14 -82 -2 -95 27 -15 33 -58 34 -58 1
0 -57 69 -94 151 -81 54 9 89 42 89 84 0 44 -36 75 -104 91 -64 14 -85 31 -66
54 23 28 100 12 100 -20 0 -10 10 -15 31 -15 29 0 31 2 24 28 -11 45 -38 65
-97 69 -29 1 -63 -1 -74 -6z"/>
<path d="M1260 283 c0 -4 19 -67 42 -140 l42 -134 30 3 c29 3 31 6 56 101 l26
99 24 -101 c24 -101 24 -101 54 -101 31 0 31 1 70 128 22 70 42 133 44 140 3
8 -6 12 -25 12 -29 0 -31 -2 -53 -87 -12 -49 -26 -94 -29 -101 -4 -7 -18 32
-31 88 l-24 100 -31 0 -31 0 -25 -102 -25 -103 -28 103 c-28 99 -29 102 -57
102 -16 0 -29 -3 -29 -7z"/>
<path d="M3832 170 c3 -109 5 -122 26 -142 30 -30 110 -32 141 -4 19 17 21 17
21 3 0 -11 8 -17 25 -17 l25 0 0 140 0 140 -30 0 -30 0 0 -99 c0 -96 -1 -100
-27 -121 -28 -22 -70 -20 -85 3 -4 7 -8 58 -8 115 l0 102 -31 0 -31 0 4 -120z"/>
<path d="M5200 150 l0 -140 30 0 30 0 0 140 0 140 -30 0 -30 0 0 -140z"/>
</g>
</svg>
